<svg width="49" height="74" viewBox="0 0 49 74" fill="none" xmlns="http://www.w3.org/2000/svg">
<g clip-path="url(#clip0_100_124)">
<path d="M24.5161 73.111C37.6997 73.111 48.3871 61.9679 48.3871 48.2221C48.3871 34.4764 37.6997 23.3333 24.5161 23.3333C11.3325 23.3333 0.645142 34.4764 0.645142 48.2221C0.645142 61.9679 11.3325 73.111 24.5161 73.111Z" fill="#84F2D6"/>
<path d="M39.137 30.7998C24.9825 30.7998 13.34 42.1533 12.1063 56.5818C14.4582 53.1235 17.3393 49.7958 20.936 45.9702C21.2034 45.6828 21.6462 45.677 21.9205 45.9601C22.1949 46.2403 22.199 46.7005 21.9302 46.9866C21.3885 47.5615 20.8386 48.1582 20.2857 48.7622C19.9696 49.1063 19.6605 49.4489 19.357 49.7858C19.3013 49.8482 19.2455 49.9106 19.1899 49.9745C14.7451 54.9369 11.5674 59.2561 9.26006 64.6207C9.10269 64.9866 9.26006 65.4164 9.60959 65.5804C9.70287 65.6239 9.79895 65.6443 9.89503 65.6443C10.161 65.6443 10.4158 65.4846 10.5314 65.216C11.3529 63.3068 12.3068 61.5356 13.379 59.8122C23.104 59.5523 31.956 53.9118 36.5957 44.9365C36.7113 44.7115 36.7057 44.44 36.5804 44.2193C36.4537 44.0015 36.2267 43.8665 35.9816 43.8665H33.4028L38.0272 41.1108C38.1734 41.0237 38.2862 40.8829 38.3405 40.7174C39.3319 37.7121 39.8332 34.6196 39.8332 31.5258C39.8332 31.125 39.5214 30.7998 39.137 30.7998Z" fill="black"/>
<circle cx="20.1451" cy="11.7222" r="4.5" fill="#84F2D6"/>
<ellipse cx="15.7634" cy="4.66661" rx="3.9785" ry="4.44444" fill="#84F2D6"/>
<circle cx="12.6451" cy="8.22217" r="2" fill="#84F2D6"/>
<circle cx="8.14514" cy="14.7222" r="4.5" fill="#84F2D6"/>
<ellipse cx="30.086" cy="9.99999" rx="3.97849" ry="4.44444" fill="#84F2D6"/>
</g>
<defs>
<clipPath id="clip0_100_124">
<rect width="47.7419" height="72.8889" fill="white" transform="translate(0.645142 0.222168)"/>
</clipPath>
</defs>
</svg>
