<svg width="367" height="164" viewBox="0 0 367 164" fill="none" xmlns="http://www.w3.org/2000/svg">
<path d="M9.4276 111.579C8.53494 111.579 7.7506 111.384 7.0746 110.994C6.40727 110.595 5.88294 110.04 5.5016 109.33C5.12894 108.619 4.9426 107.8 4.9426 106.873C4.9426 105.945 5.12894 105.131 5.5016 104.429C5.88294 103.718 6.40727 103.163 7.0746 102.765C7.7506 102.366 8.53494 102.167 9.4276 102.167C10.3289 102.167 11.1133 102.366 11.7806 102.765C12.4566 103.163 12.9809 103.718 13.3536 104.429C13.7263 105.131 13.9126 105.945 13.9126 106.873C13.9126 107.8 13.7263 108.619 13.3536 109.33C12.9809 110.04 12.4566 110.595 11.7806 110.994C11.1133 111.384 10.3289 111.579 9.4276 111.579ZM9.4276 110.617C10.0949 110.617 10.6799 110.469 11.1826 110.175C11.6939 109.871 12.0883 109.442 12.3656 108.888C12.6516 108.324 12.7946 107.653 12.7946 106.873C12.7946 106.093 12.6516 105.425 12.3656 104.871C12.0883 104.316 11.6939 103.891 11.1826 103.597C10.6799 103.293 10.0949 103.142 9.4276 103.142C8.76027 103.142 8.17094 103.293 7.6596 103.597C7.15694 103.891 6.7626 104.316 6.4766 104.871C6.19927 105.425 6.0606 106.093 6.0606 106.873C6.0606 107.653 6.19927 108.324 6.4766 108.888C6.7626 109.442 7.15694 109.871 7.6596 110.175C8.17094 110.469 8.76027 110.617 9.4276 110.617ZM21.8274 111.579C21.212 111.579 20.6574 111.44 20.1634 111.163C19.678 110.877 19.2924 110.482 19.0064 109.98C18.729 109.468 18.5904 108.875 18.5904 108.199C18.5904 107.523 18.729 106.933 19.0064 106.431C19.2924 105.919 19.678 105.525 20.1634 105.248C20.6574 104.962 21.212 104.819 21.8274 104.819C22.59 104.819 23.2314 105.018 23.7514 105.417C24.28 105.815 24.6137 106.348 24.7524 107.016H23.6344C23.5477 106.617 23.3354 106.309 22.9974 106.093C22.6594 105.867 22.265 105.755 21.8144 105.755C21.4504 105.755 21.108 105.846 20.7874 106.028C20.4667 106.21 20.2067 106.483 20.0074 106.847C19.808 107.211 19.7084 107.661 19.7084 108.199C19.7084 108.736 19.808 109.187 20.0074 109.551C20.2067 109.915 20.4667 110.192 20.7874 110.383C21.108 110.565 21.4504 110.656 21.8144 110.656C22.265 110.656 22.6594 110.547 22.9974 110.331C23.3354 110.105 23.5477 109.789 23.6344 109.382H24.7524C24.6224 110.032 24.293 110.56 23.7644 110.968C23.2357 111.375 22.59 111.579 21.8274 111.579ZM28.4224 111.579C27.8851 111.579 27.4388 111.488 27.0834 111.306C26.7281 111.124 26.4638 110.881 26.2904 110.578C26.1171 110.274 26.0304 109.945 26.0304 109.59C26.0304 108.931 26.2818 108.424 26.7844 108.069C27.2871 107.713 27.9718 107.536 28.8384 107.536H30.5804V107.458C30.5804 106.894 30.4331 106.47 30.1384 106.184C29.8438 105.889 29.4494 105.742 28.9554 105.742C28.5308 105.742 28.1624 105.85 27.8504 106.067C27.5471 106.275 27.3564 106.582 27.2784 106.99H26.1604C26.2038 106.522 26.3598 106.127 26.6284 105.807C26.9058 105.486 27.2481 105.243 27.6554 105.079C28.0628 104.905 28.4961 104.819 28.9554 104.819C29.8568 104.819 30.5328 105.061 30.9834 105.547C31.4428 106.023 31.6724 106.66 31.6724 107.458V111.423H30.6974L30.6324 110.266C30.4504 110.63 30.1818 110.942 29.8264 111.202C29.4798 111.453 29.0118 111.579 28.4224 111.579ZM28.5914 110.656C29.0074 110.656 29.3628 110.547 29.6574 110.331C29.9608 110.114 30.1904 109.832 30.3464 109.486C30.5024 109.139 30.5804 108.775 30.5804 108.394V108.381H28.9294C28.2881 108.381 27.8331 108.493 27.5644 108.719C27.3044 108.935 27.1744 109.208 27.1744 109.538C27.1744 109.876 27.2958 110.149 27.5384 110.357C27.7898 110.556 28.1408 110.656 28.5914 110.656ZM36.7556 111.579C36.227 111.579 35.7546 111.47 35.3386 111.254C34.9313 111.037 34.6193 110.734 34.4026 110.344L34.2986 111.423H33.3106V102.063H34.4026V106.041C34.6106 105.729 34.9053 105.447 35.2866 105.196C35.6766 104.944 36.1706 104.819 36.7686 104.819C37.41 104.819 37.969 104.966 38.4456 105.261C38.9223 105.555 39.2906 105.958 39.5506 106.47C39.8193 106.981 39.9536 107.562 39.9536 108.212C39.9536 108.862 39.8193 109.442 39.5506 109.954C39.2906 110.456 38.918 110.855 38.4326 111.15C37.956 111.436 37.397 111.579 36.7556 111.579ZM36.6386 110.63C37.072 110.63 37.4533 110.53 37.7826 110.331C38.112 110.123 38.372 109.837 38.5626 109.473C38.7533 109.109 38.8486 108.684 38.8486 108.199C38.8486 107.713 38.7533 107.289 38.5626 106.925C38.372 106.561 38.112 106.279 37.7826 106.08C37.4533 105.872 37.072 105.768 36.6386 105.768C36.2053 105.768 35.824 105.872 35.4946 106.08C35.1653 106.279 34.9053 106.561 34.7146 106.925C34.524 107.289 34.4286 107.713 34.4286 108.199C34.4286 108.684 34.524 109.109 34.7146 109.473C34.9053 109.837 35.1653 110.123 35.4946 110.331C35.824 110.53 36.2053 110.63 36.6386 110.63ZM44.3727 111.579C43.7574 111.579 43.2114 111.44 42.7347 111.163C42.2581 110.877 41.8811 110.482 41.6037 109.98C41.3351 109.477 41.2007 108.883 41.2007 108.199C41.2007 107.523 41.3351 106.933 41.6037 106.431C41.8724 105.919 42.2451 105.525 42.7217 105.248C43.2071 104.962 43.7661 104.819 44.3987 104.819C45.0227 104.819 45.5601 104.962 46.0107 105.248C46.4701 105.525 46.8211 105.893 47.0637 106.353C47.3064 106.812 47.4277 107.306 47.4277 107.835C47.4277 107.93 47.4234 108.025 47.4147 108.121C47.4147 108.216 47.4147 108.324 47.4147 108.446H42.2797C42.3057 108.94 42.4184 109.351 42.6177 109.681C42.8257 110.001 43.0814 110.244 43.3847 110.409C43.6967 110.573 44.0261 110.656 44.3727 110.656C44.8234 110.656 45.2004 110.552 45.5037 110.344C45.8071 110.136 46.0281 109.854 46.1667 109.499H47.2457C47.0724 110.097 46.7387 110.595 46.2447 110.994C45.7594 111.384 45.1354 111.579 44.3727 111.579ZM44.3727 105.742C43.8527 105.742 43.3891 105.902 42.9817 106.223C42.5831 106.535 42.3534 106.994 42.2927 107.601H46.3487C46.3227 107.02 46.1234 106.565 45.7507 106.236C45.3781 105.906 44.9187 105.742 44.3727 105.742ZM51.8001 111.579C51.1588 111.579 50.5954 111.431 50.1101 111.137C49.6334 110.842 49.2608 110.439 48.9921 109.928C48.7321 109.416 48.6021 108.836 48.6021 108.186C48.6021 107.536 48.7364 106.959 49.0051 106.457C49.2738 105.945 49.6464 105.547 50.1231 105.261C50.5998 104.966 51.1631 104.819 51.8131 104.819C52.3418 104.819 52.8098 104.927 53.2171 105.144C53.6244 105.36 53.9408 105.664 54.1661 106.054V102.063H55.2581V111.423H54.2701L54.1661 110.357C53.9581 110.669 53.6591 110.95 53.2691 111.202C52.8791 111.453 52.3894 111.579 51.8001 111.579ZM51.9171 110.63C52.3504 110.63 52.7318 110.53 53.0611 110.331C53.3991 110.123 53.6591 109.837 53.8411 109.473C54.0318 109.109 54.1271 108.684 54.1271 108.199C54.1271 107.713 54.0318 107.289 53.8411 106.925C53.6591 106.561 53.3991 106.279 53.0611 106.08C52.7318 105.872 52.3504 105.768 51.9171 105.768C51.4924 105.768 51.1111 105.872 50.7731 106.08C50.4438 106.279 50.1838 106.561 49.9931 106.925C49.8111 107.289 49.7201 107.713 49.7201 108.199C49.7201 108.684 49.8111 109.109 49.9931 109.473C50.1838 109.837 50.4438 110.123 50.7731 110.331C51.1111 110.53 51.4924 110.63 51.9171 110.63ZM59.1832 111.579C58.6458 111.579 58.1995 111.488 57.8442 111.306C57.4888 111.124 57.2245 110.881 57.0512 110.578C56.8778 110.274 56.7912 109.945 56.7912 109.59C56.7912 108.931 57.0425 108.424 57.5452 108.069C58.0478 107.713 58.7325 107.536 59.5992 107.536H61.3412V107.458C61.3412 106.894 61.1938 106.47 60.8992 106.184C60.6045 105.889 60.2102 105.742 59.7162 105.742C59.2915 105.742 58.9232 105.85 58.6112 106.067C58.3078 106.275 58.1172 106.582 58.0392 106.99H56.9212C56.9645 106.522 57.1205 106.127 57.3892 105.807C57.6665 105.486 58.0088 105.243 58.4162 105.079C58.8235 104.905 59.2568 104.819 59.7162 104.819C60.6175 104.819 61.2935 105.061 61.7442 105.547C62.2035 106.023 62.4332 106.66 62.4332 107.458V111.423H61.4582L61.3932 110.266C61.2112 110.63 60.9425 110.942 60.5872 111.202C60.2405 111.453 59.7725 111.579 59.1832 111.579ZM59.3522 110.656C59.7682 110.656 60.1235 110.547 60.4182 110.331C60.7215 110.114 60.9512 109.832 61.1072 109.486C61.2632 109.139 61.3412 108.775 61.3412 108.394V108.381H59.6902C59.0488 108.381 58.5938 108.493 58.3252 108.719C58.0652 108.935 57.9352 109.208 57.9352 109.538C57.9352 109.876 58.0565 110.149 58.2992 110.357C58.5505 110.556 58.9015 110.656 59.3522 110.656ZM64.0714 111.423V102.063H65.1634V111.423H64.0714ZM73.3186 111.579C72.6773 111.579 72.114 111.431 71.6286 111.137C71.152 110.842 70.7793 110.439 70.5106 109.928C70.2506 109.416 70.1206 108.836 70.1206 108.186C70.1206 107.536 70.255 106.959 70.5236 106.457C70.7923 105.945 71.165 105.547 71.6416 105.261C72.1183 104.966 72.6816 104.819 73.3316 104.819C73.8603 104.819 74.3283 104.927 74.7356 105.144C75.143 105.36 75.4593 105.664 75.6846 106.054V102.063H76.7766V111.423H75.7886L75.6846 110.357C75.4766 110.669 75.1776 110.95 74.7876 111.202C74.3976 111.453 73.908 111.579 73.3186 111.579ZM73.4356 110.63C73.869 110.63 74.2503 110.53 74.5796 110.331C74.9176 110.123 75.1776 109.837 75.3596 109.473C75.5503 109.109 75.6456 108.684 75.6456 108.199C75.6456 107.713 75.5503 107.289 75.3596 106.925C75.1776 106.561 74.9176 106.279 74.5796 106.08C74.2503 105.872 73.869 105.768 73.4356 105.768C73.011 105.768 72.6296 105.872 72.2916 106.08C71.9623 106.279 71.7023 106.561 71.5116 106.925C71.3296 107.289 71.2386 107.713 71.2386 108.199C71.2386 108.684 71.3296 109.109 71.5116 109.473C71.7023 109.837 71.9623 110.123 72.2916 110.331C72.6296 110.53 73.011 110.63 73.4356 110.63ZM81.4947 111.579C80.8881 111.579 80.3421 111.44 79.8567 111.163C79.3714 110.885 78.9857 110.495 78.6997 109.993C78.4224 109.481 78.2837 108.883 78.2837 108.199C78.2837 107.514 78.4267 106.92 78.7127 106.418C78.9987 105.906 79.3844 105.512 79.8697 105.235C80.3637 104.957 80.9141 104.819 81.5207 104.819C82.1274 104.819 82.6734 104.957 83.1587 105.235C83.6441 105.512 84.0254 105.906 84.3027 106.418C84.5887 106.92 84.7317 107.514 84.7317 108.199C84.7317 108.883 84.5887 109.481 84.3027 109.993C84.0167 110.495 83.6267 110.885 83.1327 111.163C82.6474 111.44 82.1014 111.579 81.4947 111.579ZM81.4947 110.643C81.8674 110.643 82.2141 110.552 82.5347 110.37C82.8554 110.188 83.1154 109.915 83.3147 109.551C83.5141 109.187 83.6137 108.736 83.6137 108.199C83.6137 107.661 83.5141 107.211 83.3147 106.847C83.1241 106.483 82.8684 106.21 82.5477 106.028C82.2271 105.846 81.8847 105.755 81.5207 105.755C81.1481 105.755 80.8014 105.846 80.4807 106.028C80.1601 106.21 79.9001 106.483 79.7007 106.847C79.5014 107.211 79.4017 107.661 79.4017 108.199C79.4017 108.736 79.5014 109.187 79.7007 109.551C79.9001 109.915 80.1557 110.188 80.4677 110.37C80.7884 110.552 81.1307 110.643 81.4947 110.643ZM89.7555 111.423V102.323H90.8475L95.6965 109.616V102.323H96.7885V111.423H95.6965L90.8475 104.13V111.423H89.7555ZM99.3164 103.545C99.0997 103.545 98.9177 103.475 98.7704 103.337C98.6317 103.189 98.5624 103.007 98.5624 102.791C98.5624 102.583 98.6317 102.409 98.7704 102.271C98.9177 102.132 99.0997 102.063 99.3164 102.063C99.5244 102.063 99.7021 102.132 99.8494 102.271C99.9967 102.409 100.07 102.583 100.07 102.791C100.07 103.007 99.9967 103.189 99.8494 103.337C99.7021 103.475 99.5244 103.545 99.3164 103.545ZM98.7704 111.423V104.975H99.8624V111.423H98.7704ZM101.764 111.423V102.063H102.856V107.692L105.495 104.975H106.834L103.974 107.887L107.198 111.423H105.807L102.856 108.082V111.423H101.764ZM110.744 111.579C110.128 111.579 109.582 111.44 109.106 111.163C108.629 110.877 108.252 110.482 107.975 109.98C107.706 109.477 107.572 108.883 107.572 108.199C107.572 107.523 107.706 106.933 107.975 106.431C108.243 105.919 108.616 105.525 109.093 105.248C109.578 104.962 110.137 104.819 110.77 104.819C111.394 104.819 111.931 104.962 112.382 105.248C112.841 105.525 113.192 105.893 113.435 106.353C113.677 106.812 113.799 107.306 113.799 107.835C113.799 107.93 113.794 108.025 113.786 108.121C113.786 108.216 113.786 108.324 113.786 108.446H108.651C108.677 108.94 108.789 109.351 108.989 109.681C109.197 110.001 109.452 110.244 109.756 110.409C110.068 110.573 110.397 110.656 110.744 110.656C111.194 110.656 111.571 110.552 111.875 110.344C112.178 110.136 112.399 109.854 112.538 109.499H113.617C113.443 110.097 113.11 110.595 112.616 110.994C112.13 111.384 111.506 111.579 110.744 111.579ZM110.744 105.742C110.224 105.742 109.76 105.902 109.353 106.223C108.954 106.535 108.724 106.994 108.664 107.601H112.72C112.694 107.02 112.494 106.565 112.122 106.236C111.749 105.906 111.29 105.742 110.744 105.742ZM120.78 111.579C119.956 111.579 119.311 111.349 118.843 110.89C118.375 110.43 118.141 109.793 118.141 108.979H119.246C119.246 109.438 119.358 109.824 119.584 110.136C119.809 110.448 120.203 110.604 120.767 110.604C121.313 110.604 121.69 110.452 121.898 110.149C122.114 109.845 122.223 109.468 122.223 109.018V102.323H123.315V109.018C123.315 109.824 123.089 110.452 122.639 110.903C122.197 111.353 121.577 111.579 120.78 111.579ZM128.112 111.579C127.505 111.579 126.959 111.44 126.474 111.163C125.989 110.885 125.603 110.495 125.317 109.993C125.04 109.481 124.901 108.883 124.901 108.199C124.901 107.514 125.044 106.92 125.33 106.418C125.616 105.906 126.002 105.512 126.487 105.235C126.981 104.957 127.531 104.819 128.138 104.819C128.745 104.819 129.291 104.957 129.776 105.235C130.261 105.512 130.643 105.906 130.92 106.418C131.206 106.92 131.349 107.514 131.349 108.199C131.349 108.883 131.206 109.481 130.92 109.993C130.634 110.495 130.244 110.885 129.75 111.163C129.265 111.44 128.719 111.579 128.112 111.579ZM128.112 110.643C128.485 110.643 128.831 110.552 129.152 110.37C129.473 110.188 129.733 109.915 129.932 109.551C130.131 109.187 130.231 108.736 130.231 108.199C130.231 107.661 130.131 107.211 129.932 106.847C129.741 106.483 129.486 106.21 129.165 106.028C128.844 105.846 128.502 105.755 128.138 105.755C127.765 105.755 127.419 105.846 127.098 106.028C126.777 106.21 126.517 106.483 126.318 106.847C126.119 107.211 126.019 107.661 126.019 108.199C126.019 108.736 126.119 109.187 126.318 109.551C126.517 109.915 126.773 110.188 127.085 110.37C127.406 110.552 127.748 110.643 128.112 110.643ZM133.049 114.283L134.648 110.799H134.271L131.71 104.975H132.893L135.025 109.993L137.287 104.975H138.418L134.193 114.283H133.049ZM139.57 111.423V104.975H140.558L140.649 106.21C140.849 105.785 141.152 105.447 141.559 105.196C141.967 104.944 142.469 104.819 143.067 104.819V105.963H142.768C142.387 105.963 142.036 106.032 141.715 106.171C141.395 106.301 141.139 106.526 140.948 106.847C140.758 107.167 140.662 107.609 140.662 108.173V111.423H139.57ZM144.956 103.545C144.739 103.545 144.557 103.475 144.41 103.337C144.271 103.189 144.202 103.007 144.202 102.791C144.202 102.583 144.271 102.409 144.41 102.271C144.557 102.132 144.739 102.063 144.956 102.063C145.164 102.063 145.342 102.132 145.489 102.271C145.636 102.409 145.71 102.583 145.71 102.791C145.71 103.007 145.636 103.189 145.489 103.337C145.342 103.475 145.164 103.545 144.956 103.545ZM144.41 111.423V104.975H145.502V111.423H144.41ZM150.328 111.579C149.687 111.579 149.124 111.431 148.638 111.137C148.162 110.842 147.789 110.439 147.52 109.928C147.26 109.416 147.13 108.836 147.13 108.186C147.13 107.536 147.265 106.959 147.533 106.457C147.802 105.945 148.175 105.547 148.651 105.261C149.128 104.966 149.691 104.819 150.341 104.819C150.87 104.819 151.338 104.927 151.745 105.144C152.153 105.36 152.469 105.664 152.694 106.054V102.063H153.786V111.423H152.798L152.694 110.357C152.486 110.669 152.187 110.95 151.797 111.202C151.407 111.453 150.918 111.579 150.328 111.579ZM150.445 110.63C150.879 110.63 151.26 110.53 151.589 110.331C151.927 110.123 152.187 109.837 152.369 109.473C152.56 109.109 152.655 108.684 152.655 108.199C152.655 107.713 152.56 107.289 152.369 106.925C152.187 106.561 151.927 106.279 151.589 106.08C151.26 105.872 150.879 105.768 150.445 105.768C150.021 105.768 149.639 105.872 149.301 106.08C148.972 106.279 148.712 106.561 148.521 106.925C148.339 107.289 148.248 107.713 148.248 108.199C148.248 108.684 148.339 109.109 148.521 109.473C148.712 109.837 148.972 110.123 149.301 110.331C149.639 110.53 150.021 110.63 150.445 110.63ZM158.465 111.579C157.85 111.579 157.304 111.44 156.827 111.163C156.351 110.877 155.974 110.482 155.696 109.98C155.428 109.477 155.293 108.883 155.293 108.199C155.293 107.523 155.428 106.933 155.696 106.431C155.965 105.919 156.338 105.525 156.814 105.248C157.3 104.962 157.859 104.819 158.491 104.819C159.115 104.819 159.653 104.962 160.103 105.248C160.563 105.525 160.914 105.893 161.156 106.353C161.399 106.812 161.52 107.306 161.52 107.835C161.52 107.93 161.516 108.025 161.507 108.121C161.507 108.216 161.507 108.324 161.507 108.446H156.372C156.398 108.94 156.511 109.351 156.71 109.681C156.918 110.001 157.174 110.244 157.477 110.409C157.789 110.573 158.119 110.656 158.465 110.656C158.916 110.656 159.293 110.552 159.596 110.344C159.9 110.136 160.121 109.854 160.259 109.499H161.338C161.165 110.097 160.831 110.595 160.337 110.994C159.852 111.384 159.228 111.579 158.465 111.579ZM158.465 105.742C157.945 105.742 157.482 105.902 157.074 106.223C156.676 106.535 156.446 106.994 156.385 107.601H160.441C160.415 107.02 160.216 106.565 159.843 106.236C159.471 105.906 159.011 105.742 158.465 105.742ZM166.473 111.423V102.323H169.411C170.122 102.323 170.703 102.44 171.153 102.674C171.604 102.908 171.938 103.228 172.154 103.636C172.371 104.043 172.479 104.494 172.479 104.988C172.479 105.56 172.323 106.075 172.011 106.535C171.708 106.994 171.231 107.319 170.581 107.51L172.57 111.423H171.283L169.437 107.666H169.359H167.565V111.423H166.473ZM167.565 106.808H169.333C170.035 106.808 170.547 106.639 170.867 106.301C171.188 105.963 171.348 105.529 171.348 105.001C171.348 104.463 171.188 104.039 170.867 103.727C170.555 103.406 170.04 103.246 169.32 103.246H167.565V106.808ZM176.467 111.579C175.705 111.579 175.098 111.349 174.647 110.89C174.197 110.422 173.971 109.707 173.971 108.745V104.975H175.063V108.628C175.063 109.971 175.614 110.643 176.714 110.643C177.278 110.643 177.741 110.443 178.105 110.045C178.478 109.637 178.664 109.061 178.664 108.316V104.975H179.756V111.423H178.768L178.69 110.266C178.491 110.673 178.192 110.994 177.793 111.228C177.403 111.462 176.961 111.579 176.467 111.579ZM181.554 111.423V104.975H182.542L182.607 106.132C182.815 105.724 183.114 105.404 183.504 105.17C183.894 104.936 184.336 104.819 184.83 104.819C185.592 104.819 186.199 105.053 186.65 105.521C187.109 105.98 187.339 106.691 187.339 107.653V111.423H186.247V107.77C186.247 106.426 185.692 105.755 184.583 105.755C184.028 105.755 183.564 105.958 183.192 106.366C182.828 106.764 182.646 107.336 182.646 108.082V111.423H181.554ZM192.499 111.423V102.323H198.037V103.22H193.591V106.418H197.374V107.302H193.591V111.423H192.499ZM199.378 111.423V102.063H200.47V111.423H199.378ZM202.962 114.283L204.561 110.799H204.184L201.623 104.975H202.806L204.938 109.993L207.2 104.975H208.331L204.106 114.283H202.962ZM209.483 111.423V102.063H210.575V107.692L213.214 104.975H214.553L211.693 107.887L214.917 111.423H213.526L210.575 108.082V111.423H209.483ZM216.034 111.423V104.975H217.022L217.087 106.132C217.295 105.724 217.594 105.404 217.984 105.17C218.374 104.936 218.816 104.819 219.31 104.819C220.073 104.819 220.68 105.053 221.13 105.521C221.59 105.98 221.819 106.691 221.819 107.653V111.423H220.727V107.77C220.727 106.426 220.173 105.755 219.063 105.755C218.509 105.755 218.045 105.958 217.672 106.366C217.308 106.764 217.126 107.336 217.126 108.082V111.423H216.034ZM224.137 103.545C223.92 103.545 223.738 103.475 223.591 103.337C223.452 103.189 223.383 103.007 223.383 102.791C223.383 102.583 223.452 102.409 223.591 102.271C223.738 102.132 223.92 102.063 224.137 102.063C224.345 102.063 224.522 102.132 224.67 102.271C224.817 102.409 224.891 102.583 224.891 102.791C224.891 103.007 224.817 103.189 224.67 103.337C224.522 103.475 224.345 103.545 224.137 103.545ZM223.591 111.423V104.975H224.683V111.423H223.591ZM229.132 111.423C228.543 111.423 228.079 111.28 227.741 110.994C227.403 110.708 227.234 110.192 227.234 109.447V105.898H226.116V104.975H227.234L227.377 103.428H228.326V104.975H230.224V105.898H228.326V109.447C228.326 109.854 228.408 110.131 228.573 110.279C228.738 110.417 229.028 110.487 229.444 110.487H230.12V111.423H229.132ZM235.052 114.283V104.975H236.04L236.144 106.041C236.352 105.729 236.647 105.447 237.028 105.196C237.418 104.944 237.912 104.819 238.51 104.819C239.151 104.819 239.71 104.966 240.187 105.261C240.664 105.555 241.032 105.958 241.292 106.47C241.561 106.981 241.695 107.562 241.695 108.212C241.695 108.862 241.561 109.442 241.292 109.954C241.032 110.456 240.659 110.855 240.174 111.15C239.697 111.436 239.138 111.579 238.497 111.579C237.968 111.579 237.496 111.47 237.08 111.254C236.673 111.037 236.361 110.734 236.144 110.344V114.283H235.052ZM238.38 110.63C238.813 110.63 239.195 110.53 239.524 110.331C239.853 110.123 240.113 109.837 240.304 109.473C240.495 109.109 240.59 108.684 240.59 108.199C240.59 107.713 240.495 107.289 240.304 106.925C240.113 106.561 239.853 106.279 239.524 106.08C239.195 105.872 238.813 105.768 238.38 105.768C237.947 105.768 237.565 105.872 237.236 106.08C236.907 106.279 236.647 106.561 236.456 106.925C236.265 107.289 236.17 107.713 236.17 108.199C236.17 108.684 236.265 109.109 236.456 109.473C236.647 109.837 236.907 110.123 237.236 110.331C237.565 110.53 237.947 110.63 238.38 110.63ZM243.215 111.423V104.975H244.203L244.294 106.21C244.493 105.785 244.797 105.447 245.204 105.196C245.611 104.944 246.114 104.819 246.712 104.819V105.963H246.413C246.032 105.963 245.681 106.032 245.36 106.171C245.039 106.301 244.784 106.526 244.593 106.847C244.402 107.167 244.307 107.609 244.307 108.173V111.423H243.215ZM250.634 111.579C250.028 111.579 249.482 111.44 248.996 111.163C248.511 110.885 248.125 110.495 247.839 109.993C247.562 109.481 247.423 108.883 247.423 108.199C247.423 107.514 247.566 106.92 247.852 106.418C248.138 105.906 248.524 105.512 249.009 105.235C249.503 104.957 250.054 104.819 250.66 104.819C251.267 104.819 251.813 104.957 252.298 105.235C252.784 105.512 253.165 105.906 253.442 106.418C253.728 106.92 253.871 107.514 253.871 108.199C253.871 108.883 253.728 109.481 253.442 109.993C253.156 110.495 252.766 110.885 252.272 111.163C251.787 111.44 251.241 111.579 250.634 111.579ZM250.634 110.643C251.007 110.643 251.354 110.552 251.674 110.37C251.995 110.188 252.255 109.915 252.454 109.551C252.654 109.187 252.753 108.736 252.753 108.199C252.753 107.661 252.654 107.211 252.454 106.847C252.264 106.483 252.008 106.21 251.687 106.028C251.367 105.846 251.024 105.755 250.66 105.755C250.288 105.755 249.941 105.846 249.62 106.028C249.3 106.21 249.04 106.483 248.84 106.847C248.641 107.211 248.541 107.661 248.541 108.199C248.541 108.736 248.641 109.187 248.84 109.551C249.04 109.915 249.295 110.188 249.607 110.37C249.928 110.552 250.27 110.643 250.634 110.643ZM255.39 114.283V104.975H256.378L256.482 106.041C256.69 105.729 256.984 105.447 257.366 105.196C257.756 104.944 258.25 104.819 258.848 104.819C259.489 104.819 260.048 104.966 260.525 105.261C261.001 105.555 261.37 105.958 261.63 106.47C261.898 106.981 262.033 107.562 262.033 108.212C262.033 108.862 261.898 109.442 261.63 109.954C261.37 110.456 260.997 110.855 260.512 111.15C260.035 111.436 259.476 111.579 258.835 111.579C258.306 111.579 257.834 111.47 257.418 111.254C257.01 111.037 256.698 110.734 256.482 110.344V114.283H255.39ZM258.718 110.63C259.151 110.63 259.532 110.53 259.862 110.331C260.191 110.123 260.451 109.837 260.642 109.473C260.832 109.109 260.928 108.684 260.928 108.199C260.928 107.713 260.832 107.289 260.642 106.925C260.451 106.561 260.191 106.279 259.862 106.08C259.532 105.872 259.151 105.768 258.718 105.768C258.284 105.768 257.903 105.872 257.574 106.08C257.244 106.279 256.984 106.561 256.794 106.925C256.603 107.289 256.508 107.713 256.508 108.199C256.508 108.684 256.603 109.109 256.794 109.473C256.984 109.837 257.244 110.123 257.574 110.331C257.903 110.53 258.284 110.63 258.718 110.63ZM266.491 111.579C265.884 111.579 265.338 111.44 264.853 111.163C264.367 110.885 263.982 110.495 263.696 109.993C263.418 109.481 263.28 108.883 263.28 108.199C263.28 107.514 263.423 106.92 263.709 106.418C263.995 105.906 264.38 105.512 264.866 105.235C265.36 104.957 265.91 104.819 266.517 104.819C267.123 104.819 267.669 104.957 268.155 105.235C268.64 105.512 269.021 105.906 269.299 106.418C269.585 106.92 269.728 107.514 269.728 108.199C269.728 108.883 269.585 109.481 269.299 109.993C269.013 110.495 268.623 110.885 268.129 111.163C267.643 111.44 267.097 111.579 266.491 111.579ZM266.491 110.643C266.863 110.643 267.21 110.552 267.531 110.37C267.851 110.188 268.111 109.915 268.311 109.551C268.51 109.187 268.61 108.736 268.61 108.199C268.61 107.661 268.51 107.211 268.311 106.847C268.12 106.483 267.864 106.21 267.544 106.028C267.223 105.846 266.881 105.755 266.517 105.755C266.144 105.755 265.797 105.846 265.477 106.028C265.156 106.21 264.896 106.483 264.697 106.847C264.497 107.211 264.398 107.661 264.398 108.199C264.398 108.736 264.497 109.187 264.697 109.551C264.896 109.915 265.152 110.188 265.464 110.37C265.784 110.552 266.127 110.643 266.491 110.643ZM271.246 111.423V104.975H272.234L272.325 106.21C272.525 105.785 272.828 105.447 273.235 105.196C273.643 104.944 274.145 104.819 274.743 104.819V105.963H274.444C274.063 105.963 273.712 106.032 273.391 106.171C273.071 106.301 272.815 106.526 272.624 106.847C272.434 107.167 272.338 107.609 272.338 108.173V111.423H271.246ZM278.692 111.579C278.076 111.579 277.522 111.44 277.028 111.163C276.542 110.877 276.157 110.482 275.871 109.98C275.593 109.468 275.455 108.875 275.455 108.199C275.455 107.523 275.593 106.933 275.871 106.431C276.157 105.919 276.542 105.525 277.028 105.248C277.522 104.962 278.076 104.819 278.692 104.819C279.454 104.819 280.096 105.018 280.616 105.417C281.144 105.815 281.478 106.348 281.617 107.016H280.499C280.412 106.617 280.2 106.309 279.862 106.093C279.524 105.867 279.129 105.755 278.679 105.755C278.315 105.755 277.972 105.846 277.652 106.028C277.331 106.21 277.071 106.483 276.872 106.847C276.672 107.211 276.573 107.661 276.573 108.199C276.573 108.736 276.672 109.187 276.872 109.551C277.071 109.915 277.331 110.192 277.652 110.383C277.972 110.565 278.315 110.656 278.679 110.656C279.129 110.656 279.524 110.547 279.862 110.331C280.2 110.105 280.412 109.789 280.499 109.382H281.617C281.487 110.032 281.157 110.56 280.629 110.968C280.1 111.375 279.454 111.579 278.692 111.579ZM283.805 103.545C283.588 103.545 283.406 103.475 283.259 103.337C283.12 103.189 283.051 103.007 283.051 102.791C283.051 102.583 283.12 102.409 283.259 102.271C283.406 102.132 283.588 102.063 283.805 102.063C284.013 102.063 284.19 102.132 284.338 102.271C284.485 102.409 284.559 102.583 284.559 102.791C284.559 103.007 284.485 103.189 284.338 103.337C284.19 103.475 284.013 103.545 283.805 103.545ZM283.259 111.423V104.975H284.351V111.423H283.259ZM289.19 111.579C288.583 111.579 288.037 111.44 287.552 111.163C287.067 110.885 286.681 110.495 286.395 109.993C286.118 109.481 285.979 108.883 285.979 108.199C285.979 107.514 286.122 106.92 286.408 106.418C286.694 105.906 287.08 105.512 287.565 105.235C288.059 104.957 288.609 104.819 289.216 104.819C289.823 104.819 290.369 104.957 290.854 105.235C291.339 105.512 291.721 105.906 291.998 106.418C292.284 106.92 292.427 107.514 292.427 108.199C292.427 108.883 292.284 109.481 291.998 109.993C291.712 110.495 291.322 110.885 290.828 111.163C290.343 111.44 289.797 111.579 289.19 111.579ZM289.19 110.643C289.563 110.643 289.909 110.552 290.23 110.37C290.551 110.188 290.811 109.915 291.01 109.551C291.209 109.187 291.309 108.736 291.309 108.199C291.309 107.661 291.209 107.211 291.01 106.847C290.819 106.483 290.564 106.21 290.243 106.028C289.922 105.846 289.58 105.755 289.216 105.755C288.843 105.755 288.497 105.846 288.176 106.028C287.855 106.21 287.595 106.483 287.396 106.847C287.197 107.211 287.097 107.661 287.097 108.199C287.097 108.736 287.197 109.187 287.396 109.551C287.595 109.915 287.851 110.188 288.163 110.37C288.484 110.552 288.826 110.643 289.19 110.643ZM293.945 111.423V104.975H294.933L294.998 106.132C295.206 105.724 295.505 105.404 295.895 105.17C296.285 104.936 296.727 104.819 297.221 104.819C297.984 104.819 298.591 105.053 299.041 105.521C299.501 105.98 299.73 106.691 299.73 107.653V111.423H298.638V107.77C298.638 106.426 298.084 105.755 296.974 105.755C296.42 105.755 295.956 105.958 295.583 106.366C295.219 106.764 295.037 107.336 295.037 108.082V111.423H293.945ZM303.53 111.579C302.993 111.579 302.546 111.488 302.191 111.306C301.836 111.124 301.571 110.881 301.398 110.578C301.225 110.274 301.138 109.945 301.138 109.59C301.138 108.931 301.389 108.424 301.892 108.069C302.395 107.713 303.079 107.536 303.946 107.536H305.688V107.458C305.688 106.894 305.541 106.47 305.246 106.184C304.951 105.889 304.557 105.742 304.063 105.742C303.638 105.742 303.27 105.85 302.958 106.067C302.655 106.275 302.464 106.582 302.386 106.99H301.268C301.311 106.522 301.467 106.127 301.736 105.807C302.013 105.486 302.356 105.243 302.763 105.079C303.17 104.905 303.604 104.819 304.063 104.819C304.964 104.819 305.64 105.061 306.091 105.547C306.55 106.023 306.78 106.66 306.78 107.458V111.423H305.805L305.74 110.266C305.558 110.63 305.289 110.942 304.934 111.202C304.587 111.453 304.119 111.579 303.53 111.579ZM303.699 110.656C304.115 110.656 304.47 110.547 304.765 110.331C305.068 110.114 305.298 109.832 305.454 109.486C305.61 109.139 305.688 108.775 305.688 108.394V108.381H304.037C303.396 108.381 302.941 108.493 302.672 108.719C302.412 108.935 302.282 109.208 302.282 109.538C302.282 109.876 302.403 110.149 302.646 110.357C302.897 110.556 303.248 110.656 303.699 110.656ZM314.822 111.579C314.207 111.579 313.652 111.44 313.158 111.163C312.673 110.877 312.287 110.482 312.001 109.98C311.724 109.468 311.585 108.875 311.585 108.199C311.585 107.523 311.724 106.933 312.001 106.431C312.287 105.919 312.673 105.525 313.158 105.248C313.652 104.962 314.207 104.819 314.822 104.819C315.585 104.819 316.226 105.018 316.746 105.417C317.275 105.815 317.609 106.348 317.747 107.016H316.629C316.543 106.617 316.33 106.309 315.992 106.093C315.654 105.867 315.26 105.755 314.809 105.755C314.445 105.755 314.103 105.846 313.782 106.028C313.462 106.21 313.202 106.483 313.002 106.847C312.803 107.211 312.703 107.661 312.703 108.199C312.703 108.736 312.803 109.187 313.002 109.551C313.202 109.915 313.462 110.192 313.782 110.383C314.103 110.565 314.445 110.656 314.809 110.656C315.26 110.656 315.654 110.547 315.992 110.331C316.33 110.105 316.543 109.789 316.629 109.382H317.747C317.617 110.032 317.288 110.56 316.759 110.968C316.231 111.375 315.585 111.579 314.822 111.579ZM322.211 111.579C321.604 111.579 321.058 111.44 320.573 111.163C320.087 110.885 319.702 110.495 319.416 109.993C319.138 109.481 319 108.883 319 108.199C319 107.514 319.143 106.92 319.429 106.418C319.715 105.906 320.1 105.512 320.586 105.235C321.08 104.957 321.63 104.819 322.237 104.819C322.843 104.819 323.389 104.957 323.875 105.235C324.36 105.512 324.741 105.906 325.019 106.418C325.305 106.92 325.448 107.514 325.448 108.199C325.448 108.883 325.305 109.481 325.019 109.993C324.733 110.495 324.343 110.885 323.849 111.163C323.363 111.44 322.817 111.579 322.211 111.579ZM322.211 110.643C322.583 110.643 322.93 110.552 323.251 110.37C323.571 110.188 323.831 109.915 324.031 109.551C324.23 109.187 324.33 108.736 324.33 108.199C324.33 107.661 324.23 107.211 324.031 106.847C323.84 106.483 323.584 106.21 323.264 106.028C322.943 105.846 322.601 105.755 322.237 105.755C321.864 105.755 321.517 105.846 321.197 106.028C320.876 106.21 320.616 106.483 320.417 106.847C320.217 107.211 320.118 107.661 320.118 108.199C320.118 108.736 320.217 109.187 320.417 109.551C320.616 109.915 320.872 110.188 321.184 110.37C321.504 110.552 321.847 110.643 322.211 110.643ZM326.966 111.423V104.975H327.954L328.019 106.132C328.227 105.724 328.526 105.404 328.916 105.17C329.306 104.936 329.748 104.819 330.242 104.819C331.005 104.819 331.611 105.053 332.062 105.521C332.521 105.98 332.751 106.691 332.751 107.653V111.423H331.659V107.77C331.659 106.426 331.104 105.755 329.995 105.755C329.44 105.755 328.977 105.958 328.604 106.366C328.24 106.764 328.058 107.336 328.058 108.082V111.423H326.966ZM334.756 111.423V105.898H333.781V104.975H334.756V103.857C334.756 103.233 334.912 102.778 335.224 102.492C335.536 102.206 335.991 102.063 336.589 102.063H337.239V102.999H336.758C336.429 102.999 336.195 103.068 336.056 103.207C335.918 103.337 335.848 103.562 335.848 103.883V104.975H337.434V105.898H335.848V111.423H334.756ZM341.419 111.579C340.812 111.579 340.266 111.44 339.781 111.163C339.295 110.885 338.91 110.495 338.624 109.993C338.346 109.481 338.208 108.883 338.208 108.199C338.208 107.514 338.351 106.92 338.637 106.418C338.923 105.906 339.308 105.512 339.794 105.235C340.288 104.957 340.838 104.819 341.445 104.819C342.051 104.819 342.597 104.957 343.083 105.235C343.568 105.512 343.949 105.906 344.227 106.418C344.513 106.92 344.656 107.514 344.656 108.199C344.656 108.883 344.513 109.481 344.227 109.993C343.941 110.495 343.551 110.885 343.057 111.163C342.571 111.44 342.025 111.579 341.419 111.579ZM341.419 110.643C341.791 110.643 342.138 110.552 342.459 110.37C342.779 110.188 343.039 109.915 343.239 109.551C343.438 109.187 343.538 108.736 343.538 108.199C343.538 107.661 343.438 107.211 343.239 106.847C343.048 106.483 342.792 106.21 342.472 106.028C342.151 105.846 341.809 105.755 341.445 105.755C341.072 105.755 340.725 105.846 340.405 106.028C340.084 106.21 339.824 106.483 339.625 106.847C339.425 107.211 339.326 107.661 339.326 108.199C339.326 108.736 339.425 109.187 339.625 109.551C339.824 109.915 340.08 110.188 340.392 110.37C340.712 110.552 341.055 110.643 341.419 110.643ZM346.174 111.423V104.975H347.162L347.253 106.21C347.452 105.785 347.756 105.447 348.163 105.196C348.57 104.944 349.073 104.819 349.671 104.819V105.963H349.372C348.991 105.963 348.64 106.032 348.319 106.171C347.998 106.301 347.743 106.526 347.552 106.847C347.361 107.167 347.266 107.609 347.266 108.173V111.423H346.174ZM353.445 111.423C352.855 111.423 352.392 111.28 352.054 110.994C351.716 110.708 351.547 110.192 351.547 109.447V105.898H350.429V104.975H351.547L351.69 103.428H352.639V104.975H354.537V105.898H352.639V109.447C352.639 109.854 352.721 110.131 352.886 110.279C353.05 110.417 353.341 110.487 353.757 110.487H354.433V111.423H353.445ZM358.684 111.579C358.078 111.579 357.532 111.44 357.046 111.163C356.561 110.885 356.175 110.495 355.889 109.993C355.612 109.481 355.473 108.883 355.473 108.199C355.473 107.514 355.616 106.92 355.902 106.418C356.188 105.906 356.574 105.512 357.059 105.235C357.553 104.957 358.104 104.819 358.71 104.819C359.317 104.819 359.863 104.957 360.348 105.235C360.834 105.512 361.215 105.906 361.492 106.418C361.778 106.92 361.921 107.514 361.921 108.199C361.921 108.883 361.778 109.481 361.492 109.993C361.206 110.495 360.816 110.885 360.322 111.163C359.837 111.44 359.291 111.579 358.684 111.579ZM358.684 110.643C359.057 110.643 359.404 110.552 359.724 110.37C360.045 110.188 360.305 109.915 360.504 109.551C360.704 109.187 360.803 108.736 360.803 108.199C360.803 107.661 360.704 107.211 360.504 106.847C360.314 106.483 360.058 106.21 359.737 106.028C359.417 105.846 359.074 105.755 358.71 105.755C358.338 105.755 357.991 105.846 357.67 106.028C357.35 106.21 357.09 106.483 356.89 106.847C356.691 107.211 356.591 107.661 356.591 108.199C356.591 108.736 356.691 109.187 356.89 109.551C357.09 109.915 357.345 110.188 357.657 110.37C357.978 110.552 358.32 110.643 358.684 110.643ZM74.924 128.579C74.3087 128.579 73.7627 128.44 73.286 128.163C72.8093 127.877 72.4323 127.482 72.155 126.98C71.8863 126.477 71.752 125.883 71.752 125.199C71.752 124.523 71.8863 123.933 72.155 123.431C72.4237 122.919 72.7963 122.525 73.273 122.248C73.7583 121.962 74.3173 121.819 74.95 121.819C75.574 121.819 76.1113 121.962 76.562 122.248C77.0213 122.525 77.3723 122.893 77.615 123.353C77.8577 123.812 77.979 124.306 77.979 124.835C77.979 124.93 77.9747 125.025 77.966 125.121C77.966 125.216 77.966 125.324 77.966 125.446H72.831C72.857 125.94 72.9697 126.351 73.169 126.681C73.377 127.001 73.6327 127.244 73.936 127.409C74.248 127.573 74.5773 127.656 74.924 127.656C75.3747 127.656 75.7517 127.552 76.055 127.344C76.3583 127.136 76.5793 126.854 76.718 126.499H77.797C77.6237 127.097 77.29 127.595 76.796 127.994C76.3107 128.384 75.6867 128.579 74.924 128.579ZM74.924 122.742C74.404 122.742 73.9403 122.902 73.533 123.223C73.1343 123.535 72.9047 123.994 72.844 124.601H76.9C76.874 124.02 76.6747 123.565 76.302 123.236C75.9293 122.906 75.47 122.742 74.924 122.742ZM82.8668 128.423V121.975H83.8548L83.9458 123.21C84.1451 122.785 84.4485 122.447 84.8558 122.196C85.2631 121.944 85.7658 121.819 86.3638 121.819V122.963H86.0648C85.6835 122.963 85.3325 123.032 85.0118 123.171C84.6911 123.301 84.4355 123.526 84.2448 123.847C84.0541 124.167 83.9588 124.609 83.9588 125.173V128.423H82.8668ZM90.2472 128.579C89.6319 128.579 89.0859 128.44 88.6092 128.163C88.1326 127.877 87.7556 127.482 87.4782 126.98C87.2096 126.477 87.0752 125.883 87.0752 125.199C87.0752 124.523 87.2096 123.933 87.4782 123.431C87.7469 122.919 88.1196 122.525 88.5962 122.248C89.0816 121.962 89.6406 121.819 90.2732 121.819C90.8972 121.819 91.4346 121.962 91.8852 122.248C92.3446 122.525 92.6956 122.893 92.9382 123.353C93.1809 123.812 93.3022 124.306 93.3022 124.835C93.3022 124.93 93.2979 125.025 93.2892 125.121C93.2892 125.216 93.2892 125.324 93.2892 125.446H88.1542C88.1802 125.94 88.2929 126.351 88.4922 126.681C88.7002 127.001 88.9559 127.244 89.2592 127.409C89.5712 127.573 89.9006 127.656 90.2472 127.656C90.6979 127.656 91.0749 127.552 91.3782 127.344C91.6816 127.136 91.9026 126.854 92.0412 126.499H93.1202C92.9469 127.097 92.6132 127.595 92.1192 127.994C91.6339 128.384 91.0099 128.579 90.2472 128.579ZM90.2472 122.742C89.7272 122.742 89.2636 122.902 88.8562 123.223C88.4576 123.535 88.2279 123.994 88.1672 124.601H92.2232C92.1972 124.02 91.9979 123.565 91.6252 123.236C91.2526 122.906 90.7932 122.742 90.2472 122.742ZM97.2196 128.579C96.4483 128.579 95.8069 128.384 95.2956 127.994C94.7843 127.604 94.4853 127.075 94.3986 126.408H95.5166C95.5859 126.746 95.7636 127.04 96.0496 127.292C96.3443 127.534 96.7386 127.656 97.2326 127.656C97.6919 127.656 98.0299 127.56 98.2466 127.37C98.4633 127.17 98.5716 126.936 98.5716 126.668C98.5716 126.278 98.4286 126.018 98.1426 125.888C97.8653 125.758 97.4709 125.641 96.9596 125.537C96.6129 125.467 96.2663 125.368 95.9196 125.238C95.5729 125.108 95.2826 124.926 95.0486 124.692C94.8146 124.449 94.6976 124.133 94.6976 123.743C94.6976 123.179 94.9056 122.72 95.3216 122.365C95.7463 122.001 96.3183 121.819 97.0376 121.819C97.7223 121.819 98.2813 121.992 98.7146 122.339C99.1566 122.677 99.4123 123.162 99.4816 123.795H98.4026C98.3593 123.465 98.2163 123.21 97.9736 123.028C97.7396 122.837 97.4233 122.742 97.0246 122.742C96.6346 122.742 96.3313 122.824 96.1146 122.989C95.9066 123.153 95.8026 123.37 95.8026 123.639C95.8026 123.899 95.9369 124.102 96.2056 124.25C96.4829 124.397 96.8556 124.523 97.3236 124.627C97.7223 124.713 98.0993 124.822 98.4546 124.952C98.8186 125.073 99.1133 125.259 99.3386 125.511C99.5726 125.753 99.6896 126.109 99.6896 126.577C99.6983 127.157 99.4773 127.638 99.0266 128.02C98.5846 128.392 97.9823 128.579 97.2196 128.579ZM101.25 131.283V121.975H102.238L102.342 123.041C102.55 122.729 102.844 122.447 103.226 122.196C103.616 121.944 104.11 121.819 104.708 121.819C105.349 121.819 105.908 121.966 106.385 122.261C106.861 122.555 107.23 122.958 107.49 123.47C107.758 123.981 107.893 124.562 107.893 125.212C107.893 125.862 107.758 126.442 107.49 126.954C107.23 127.456 106.857 127.855 106.372 128.15C105.895 128.436 105.336 128.579 104.695 128.579C104.166 128.579 103.694 128.47 103.278 128.254C102.87 128.037 102.558 127.734 102.342 127.344V131.283H101.25ZM104.578 127.63C105.011 127.63 105.392 127.53 105.722 127.331C106.051 127.123 106.311 126.837 106.502 126.473C106.692 126.109 106.788 125.684 106.788 125.199C106.788 124.713 106.692 124.289 106.502 123.925C106.311 123.561 106.051 123.279 105.722 123.08C105.392 122.872 105.011 122.768 104.578 122.768C104.144 122.768 103.763 122.872 103.434 123.08C103.104 123.279 102.844 123.561 102.654 123.925C102.463 124.289 102.368 124.713 102.368 125.199C102.368 125.684 102.463 126.109 102.654 126.473C102.844 126.837 103.104 127.123 103.434 127.331C103.763 127.53 104.144 127.63 104.578 127.63ZM110.076 120.545C109.859 120.545 109.677 120.475 109.53 120.337C109.391 120.189 109.322 120.007 109.322 119.791C109.322 119.583 109.391 119.409 109.53 119.271C109.677 119.132 109.859 119.063 110.076 119.063C110.284 119.063 110.461 119.132 110.609 119.271C110.756 119.409 110.83 119.583 110.83 119.791C110.83 120.007 110.756 120.189 110.609 120.337C110.461 120.475 110.284 120.545 110.076 120.545ZM109.53 128.423V121.975H110.622V128.423H109.53ZM112.523 128.423V121.975H113.511L113.602 123.21C113.801 122.785 114.105 122.447 114.512 122.196C114.919 121.944 115.422 121.819 116.02 121.819V122.963H115.721C115.34 122.963 114.989 123.032 114.668 123.171C114.347 123.301 114.092 123.526 113.901 123.847C113.71 124.167 113.615 124.609 113.615 125.173V128.423H112.523ZM119.391 128.579C118.853 128.579 118.407 128.488 118.052 128.306C117.696 128.124 117.432 127.881 117.259 127.578C117.085 127.274 116.999 126.945 116.999 126.59C116.999 125.931 117.25 125.424 117.753 125.069C118.255 124.713 118.94 124.536 119.807 124.536H121.549V124.458C121.549 123.894 121.401 123.47 121.107 123.184C120.812 122.889 120.418 122.742 119.924 122.742C119.499 122.742 119.131 122.85 118.819 123.067C118.515 123.275 118.325 123.582 118.247 123.99H117.129C117.172 123.522 117.328 123.127 117.597 122.807C117.874 122.486 118.216 122.243 118.624 122.079C119.031 121.905 119.464 121.819 119.924 121.819C120.825 121.819 121.501 122.061 121.952 122.547C122.411 123.023 122.641 123.66 122.641 124.458V128.423H121.666L121.601 127.266C121.419 127.63 121.15 127.942 120.795 128.202C120.448 128.453 119.98 128.579 119.391 128.579ZM119.56 127.656C119.976 127.656 120.331 127.547 120.626 127.331C120.929 127.114 121.159 126.832 121.315 126.486C121.471 126.139 121.549 125.775 121.549 125.394V125.381H119.898C119.256 125.381 118.801 125.493 118.533 125.719C118.273 125.935 118.143 126.208 118.143 126.538C118.143 126.876 118.264 127.149 118.507 127.357C118.758 127.556 119.109 127.656 119.56 127.656ZM127.724 128.579C127.195 128.579 126.723 128.47 126.307 128.254C125.9 128.037 125.588 127.734 125.371 127.344L125.267 128.423H124.279V119.063H125.371V123.041C125.579 122.729 125.874 122.447 126.255 122.196C126.645 121.944 127.139 121.819 127.737 121.819C128.378 121.819 128.937 121.966 129.414 122.261C129.891 122.555 130.259 122.958 130.519 123.47C130.788 123.981 130.922 124.562 130.922 125.212C130.922 125.862 130.788 126.442 130.519 126.954C130.259 127.456 129.886 127.855 129.401 128.15C128.924 128.436 128.365 128.579 127.724 128.579ZM127.607 127.63C128.04 127.63 128.422 127.53 128.751 127.331C129.08 127.123 129.34 126.837 129.531 126.473C129.722 126.109 129.817 125.684 129.817 125.199C129.817 124.713 129.722 124.289 129.531 123.925C129.34 123.561 129.08 123.279 128.751 123.08C128.422 122.872 128.04 122.768 127.607 122.768C127.174 122.768 126.792 122.872 126.463 123.08C126.134 123.279 125.874 123.561 125.683 123.925C125.492 124.289 125.397 124.713 125.397 125.199C125.397 125.684 125.492 126.109 125.683 126.473C125.874 126.837 126.134 127.123 126.463 127.331C126.792 127.53 127.174 127.63 127.607 127.63ZM133.105 120.545C132.888 120.545 132.706 120.475 132.559 120.337C132.42 120.189 132.351 120.007 132.351 119.791C132.351 119.583 132.42 119.409 132.559 119.271C132.706 119.132 132.888 119.063 133.105 119.063C133.313 119.063 133.491 119.132 133.638 119.271C133.785 119.409 133.859 119.583 133.859 119.791C133.859 120.007 133.785 120.189 133.638 120.337C133.491 120.475 133.313 120.545 133.105 120.545ZM132.559 128.423V121.975H133.651V128.423H132.559ZM135.552 128.423V119.063H136.644V128.423H135.552ZM139.097 120.545C138.881 120.545 138.699 120.475 138.551 120.337C138.413 120.189 138.343 120.007 138.343 119.791C138.343 119.583 138.413 119.409 138.551 119.271C138.699 119.132 138.881 119.063 139.097 119.063C139.305 119.063 139.483 119.132 139.63 119.271C139.778 119.409 139.851 119.583 139.851 119.791C139.851 120.007 139.778 120.189 139.63 120.337C139.483 120.475 139.305 120.545 139.097 120.545ZM138.551 128.423V121.975H139.643V128.423H138.551ZM144.47 128.579C143.828 128.579 143.265 128.431 142.78 128.137C142.303 127.842 141.93 127.439 141.662 126.928C141.402 126.416 141.272 125.836 141.272 125.186C141.272 124.536 141.406 123.959 141.675 123.457C141.943 122.945 142.316 122.547 142.793 122.261C143.269 121.966 143.833 121.819 144.483 121.819C145.011 121.819 145.479 121.927 145.887 122.144C146.294 122.36 146.61 122.664 146.836 123.054V119.063H147.928V128.423H146.94L146.836 127.357C146.628 127.669 146.329 127.95 145.939 128.202C145.549 128.453 145.059 128.579 144.47 128.579ZM144.587 127.63C145.02 127.63 145.401 127.53 145.731 127.331C146.069 127.123 146.329 126.837 146.511 126.473C146.701 126.109 146.797 125.684 146.797 125.199C146.797 124.713 146.701 124.289 146.511 123.925C146.329 123.561 146.069 123.279 145.731 123.08C145.401 122.872 145.02 122.768 144.587 122.768C144.162 122.768 143.781 122.872 143.443 123.08C143.113 123.279 142.853 123.561 142.663 123.925C142.481 124.289 142.39 124.713 142.39 125.199C142.39 125.684 142.481 126.109 142.663 126.473C142.853 126.837 143.113 127.123 143.443 127.331C143.781 127.53 144.162 127.63 144.587 127.63ZM151.853 128.579C151.315 128.579 150.869 128.488 150.514 128.306C150.158 128.124 149.894 127.881 149.721 127.578C149.547 127.274 149.461 126.945 149.461 126.59C149.461 125.931 149.712 125.424 150.215 125.069C150.717 124.713 151.402 124.536 152.269 124.536H154.011V124.458C154.011 123.894 153.863 123.47 153.569 123.184C153.274 122.889 152.88 122.742 152.386 122.742C151.961 122.742 151.593 122.85 151.281 123.067C150.977 123.275 150.787 123.582 150.709 123.99H149.591C149.634 123.522 149.79 123.127 150.059 122.807C150.336 122.486 150.678 122.243 151.086 122.079C151.493 121.905 151.926 121.819 152.386 121.819C153.287 121.819 153.963 122.061 154.414 122.547C154.873 123.023 155.103 123.66 155.103 124.458V128.423H154.128L154.063 127.266C153.881 127.63 153.612 127.942 153.257 128.202C152.91 128.453 152.442 128.579 151.853 128.579ZM152.022 127.656C152.438 127.656 152.793 127.547 153.088 127.331C153.391 127.114 153.621 126.832 153.777 126.486C153.933 126.139 154.011 125.775 154.011 125.394V125.381H152.36C151.718 125.381 151.263 125.493 150.995 125.719C150.735 125.935 150.605 126.208 150.605 126.538C150.605 126.876 150.726 127.149 150.969 127.357C151.22 127.556 151.571 127.656 152.022 127.656ZM159.666 128.579C159.024 128.579 158.461 128.431 157.976 128.137C157.499 127.842 157.126 127.439 156.858 126.928C156.598 126.416 156.468 125.836 156.468 125.186C156.468 124.536 156.602 123.959 156.871 123.457C157.139 122.945 157.512 122.547 157.989 122.261C158.465 121.966 159.029 121.819 159.679 121.819C160.207 121.819 160.675 121.927 161.083 122.144C161.49 122.36 161.806 122.664 162.032 123.054V119.063H163.124V128.423H162.136L162.032 127.357C161.824 127.669 161.525 127.95 161.135 128.202C160.745 128.453 160.255 128.579 159.666 128.579ZM159.783 127.63C160.216 127.63 160.597 127.53 160.927 127.331C161.265 127.123 161.525 126.837 161.707 126.473C161.897 126.109 161.993 125.684 161.993 125.199C161.993 124.713 161.897 124.289 161.707 123.925C161.525 123.561 161.265 123.279 160.927 123.08C160.597 122.872 160.216 122.768 159.783 122.768C159.358 122.768 158.977 122.872 158.639 123.08C158.309 123.279 158.049 123.561 157.859 123.925C157.677 124.289 157.586 124.713 157.586 125.199C157.586 125.684 157.677 126.109 157.859 126.473C158.049 126.837 158.309 127.123 158.639 127.331C158.977 127.53 159.358 127.63 159.783 127.63ZM167.803 128.579C167.188 128.579 166.642 128.44 166.165 128.163C165.688 127.877 165.311 127.482 165.034 126.98C164.765 126.477 164.631 125.883 164.631 125.199C164.631 124.523 164.765 123.933 165.034 123.431C165.303 122.919 165.675 122.525 166.152 122.248C166.637 121.962 167.196 121.819 167.829 121.819C168.453 121.819 168.99 121.962 169.441 122.248C169.9 122.525 170.251 122.893 170.494 123.353C170.737 123.812 170.858 124.306 170.858 124.835C170.858 124.93 170.854 125.025 170.845 125.121C170.845 125.216 170.845 125.324 170.845 125.446H165.71C165.736 125.94 165.849 126.351 166.048 126.681C166.256 127.001 166.512 127.244 166.815 127.409C167.127 127.573 167.456 127.656 167.803 127.656C168.254 127.656 168.631 127.552 168.934 127.344C169.237 127.136 169.458 126.854 169.597 126.499H170.676C170.503 127.097 170.169 127.595 169.675 127.994C169.19 128.384 168.566 128.579 167.803 128.579ZM167.803 122.742C167.283 122.742 166.819 122.902 166.412 123.223C166.013 123.535 165.784 123.994 165.723 124.601H169.779C169.753 124.02 169.554 123.565 169.181 123.236C168.808 122.906 168.349 122.742 167.803 122.742ZM178.671 128.579C178.029 128.579 177.466 128.431 176.981 128.137C176.504 127.842 176.131 127.439 175.863 126.928C175.603 126.416 175.473 125.836 175.473 125.186C175.473 124.536 175.607 123.959 175.876 123.457C176.144 122.945 176.517 122.547 176.994 122.261C177.47 121.966 178.034 121.819 178.684 121.819C179.212 121.819 179.68 121.927 180.088 122.144C180.495 122.36 180.811 122.664 181.037 123.054V119.063H182.129V128.423H181.141L181.037 127.357C180.829 127.669 180.53 127.95 180.14 128.202C179.75 128.453 179.26 128.579 178.671 128.579ZM178.788 127.63C179.221 127.63 179.602 127.53 179.932 127.331C180.27 127.123 180.53 126.837 180.712 126.473C180.902 126.109 180.998 125.684 180.998 125.199C180.998 124.713 180.902 124.289 180.712 123.925C180.53 123.561 180.27 123.279 179.932 123.08C179.602 122.872 179.221 122.768 178.788 122.768C178.363 122.768 177.982 122.872 177.644 123.08C177.314 123.279 177.054 123.561 176.864 123.925C176.682 124.289 176.591 124.713 176.591 125.199C176.591 125.684 176.682 126.109 176.864 126.473C177.054 126.837 177.314 127.123 177.644 127.331C177.982 127.53 178.363 127.63 178.788 127.63ZM186.808 128.579C186.192 128.579 185.646 128.44 185.17 128.163C184.693 127.877 184.316 127.482 184.039 126.98C183.77 126.477 183.636 125.883 183.636 125.199C183.636 124.523 183.77 123.933 184.039 123.431C184.307 122.919 184.68 122.525 185.157 122.248C185.642 121.962 186.201 121.819 186.834 121.819C187.458 121.819 187.995 121.962 188.446 122.248C188.905 122.525 189.256 122.893 189.499 123.353C189.741 123.812 189.863 124.306 189.863 124.835C189.863 124.93 189.858 125.025 189.85 125.121C189.85 125.216 189.85 125.324 189.85 125.446H184.715C184.741 125.94 184.853 126.351 185.053 126.681C185.261 127.001 185.516 127.244 185.82 127.409C186.132 127.573 186.461 127.656 186.808 127.656C187.258 127.656 187.635 127.552 187.939 127.344C188.242 127.136 188.463 126.854 188.602 126.499H189.681C189.507 127.097 189.174 127.595 188.68 127.994C188.194 128.384 187.57 128.579 186.808 128.579ZM186.808 122.742C186.288 122.742 185.824 122.902 185.417 123.223C185.018 123.535 184.788 123.994 184.728 124.601H188.784C188.758 124.02 188.558 123.565 188.186 123.236C187.813 122.906 187.354 122.742 186.808 122.742ZM192.915 128.423L190.471 121.975H191.615L193.552 127.37L195.502 121.975H196.62L194.176 128.423H192.915ZM198.499 120.545C198.282 120.545 198.1 120.475 197.953 120.337C197.814 120.189 197.745 120.007 197.745 119.791C197.745 119.583 197.814 119.409 197.953 119.271C198.1 119.132 198.282 119.063 198.499 119.063C198.707 119.063 198.884 119.132 199.032 119.271C199.179 119.409 199.253 119.583 199.253 119.791C199.253 120.007 199.179 120.189 199.032 120.337C198.884 120.475 198.707 120.545 198.499 120.545ZM197.953 128.423V121.975H199.045V128.423H197.953ZM203.871 128.579C203.23 128.579 202.666 128.431 202.181 128.137C201.704 127.842 201.332 127.439 201.063 126.928C200.803 126.416 200.673 125.836 200.673 125.186C200.673 124.536 200.807 123.959 201.076 123.457C201.345 122.945 201.717 122.547 202.194 122.261C202.671 121.966 203.234 121.819 203.884 121.819C204.413 121.819 204.881 121.927 205.288 122.144C205.695 122.36 206.012 122.664 206.237 123.054V119.063H207.329V128.423H206.341L206.237 127.357C206.029 127.669 205.73 127.95 205.34 128.202C204.95 128.453 204.46 128.579 203.871 128.579ZM203.988 127.63C204.421 127.63 204.803 127.53 205.132 127.331C205.47 127.123 205.73 126.837 205.912 126.473C206.103 126.109 206.198 125.684 206.198 125.199C206.198 124.713 206.103 124.289 205.912 123.925C205.73 123.561 205.47 123.279 205.132 123.08C204.803 122.872 204.421 122.768 203.988 122.768C203.563 122.768 203.182 122.872 202.844 123.08C202.515 123.279 202.255 123.561 202.064 123.925C201.882 124.289 201.791 124.713 201.791 125.199C201.791 125.684 201.882 126.109 202.064 126.473C202.255 126.837 202.515 127.123 202.844 127.331C203.182 127.53 203.563 127.63 203.988 127.63ZM212.047 128.579C211.44 128.579 210.894 128.44 210.409 128.163C209.924 127.885 209.538 127.495 209.252 126.993C208.975 126.481 208.836 125.883 208.836 125.199C208.836 124.514 208.979 123.92 209.265 123.418C209.551 122.906 209.937 122.512 210.422 122.235C210.916 121.957 211.466 121.819 212.073 121.819C212.68 121.819 213.226 121.957 213.711 122.235C214.196 122.512 214.578 122.906 214.855 123.418C215.141 123.92 215.284 124.514 215.284 125.199C215.284 125.883 215.141 126.481 214.855 126.993C214.569 127.495 214.179 127.885 213.685 128.163C213.2 128.44 212.654 128.579 212.047 128.579ZM212.047 127.643C212.42 127.643 212.766 127.552 213.087 127.37C213.408 127.188 213.668 126.915 213.867 126.551C214.066 126.187 214.166 125.736 214.166 125.199C214.166 124.661 214.066 124.211 213.867 123.847C213.676 123.483 213.421 123.21 213.1 123.028C212.779 122.846 212.437 122.755 212.073 122.755C211.7 122.755 211.354 122.846 211.033 123.028C210.712 123.21 210.452 123.483 210.253 123.847C210.054 124.211 209.954 124.661 209.954 125.199C209.954 125.736 210.054 126.187 210.253 126.551C210.452 126.915 210.708 127.188 211.02 127.37C211.341 127.552 211.683 127.643 212.047 127.643ZM222.713 128.579C221.941 128.579 221.3 128.384 220.789 127.994C220.277 127.604 219.978 127.075 219.892 126.408H221.01C221.079 126.746 221.257 127.04 221.543 127.292C221.837 127.534 222.232 127.656 222.726 127.656C223.185 127.656 223.523 127.56 223.74 127.37C223.956 127.17 224.065 126.936 224.065 126.668C224.065 126.278 223.922 126.018 223.636 125.888C223.358 125.758 222.964 125.641 222.453 125.537C222.106 125.467 221.759 125.368 221.413 125.238C221.066 125.108 220.776 124.926 220.542 124.692C220.308 124.449 220.191 124.133 220.191 123.743C220.191 123.179 220.399 122.72 220.815 122.365C221.239 122.001 221.811 121.819 222.531 121.819C223.215 121.819 223.774 121.992 224.208 122.339C224.65 122.677 224.905 123.162 224.975 123.795H223.896C223.852 123.465 223.709 123.21 223.467 123.028C223.233 122.837 222.916 122.742 222.518 122.742C222.128 122.742 221.824 122.824 221.608 122.989C221.4 123.153 221.296 123.37 221.296 123.639C221.296 123.899 221.43 124.102 221.699 124.25C221.976 124.397 222.349 124.523 222.817 124.627C223.215 124.713 223.592 124.822 223.948 124.952C224.312 125.073 224.606 125.259 224.832 125.511C225.066 125.753 225.183 126.109 225.183 126.577C225.191 127.157 224.97 127.638 224.52 128.02C224.078 128.392 223.475 128.579 222.713 128.579ZM229.642 128.579C229.026 128.579 228.48 128.44 228.004 128.163C227.527 127.877 227.15 127.482 226.873 126.98C226.604 126.477 226.47 125.883 226.47 125.199C226.47 124.523 226.604 123.933 226.873 123.431C227.141 122.919 227.514 122.525 227.991 122.248C228.476 121.962 229.035 121.819 229.668 121.819C230.292 121.819 230.829 121.962 231.28 122.248C231.739 122.525 232.09 122.893 232.333 123.353C232.575 123.812 232.697 124.306 232.697 124.835C232.697 124.93 232.692 125.025 232.684 125.121C232.684 125.216 232.684 125.324 232.684 125.446H227.549C227.575 125.94 227.687 126.351 227.887 126.681C228.095 127.001 228.35 127.244 228.654 127.409C228.966 127.573 229.295 127.656 229.642 127.656C230.092 127.656 230.469 127.552 230.773 127.344C231.076 127.136 231.297 126.854 231.436 126.499H232.515C232.341 127.097 232.008 127.595 231.514 127.994C231.028 128.384 230.404 128.579 229.642 128.579ZM229.642 122.742C229.122 122.742 228.658 122.902 228.251 123.223C227.852 123.535 227.622 123.994 227.562 124.601H231.618C231.592 124.02 231.392 123.565 231.02 123.236C230.647 122.906 230.188 122.742 229.642 122.742ZM236.497 128.579C235.734 128.579 235.128 128.349 234.677 127.89C234.226 127.422 234.001 126.707 234.001 125.745V121.975H235.093V125.628C235.093 126.971 235.643 127.643 236.744 127.643C237.307 127.643 237.771 127.443 238.135 127.045C238.508 126.637 238.694 126.061 238.694 125.316V121.975H239.786V128.423H238.798L238.72 127.266C238.521 127.673 238.222 127.994 237.823 128.228C237.433 128.462 236.991 128.579 236.497 128.579ZM244.054 128.579C243.282 128.579 242.641 128.384 242.13 127.994C241.618 127.604 241.319 127.075 241.233 126.408H242.351C242.42 126.746 242.598 127.04 242.884 127.292C243.178 127.534 243.573 127.656 244.067 127.656C244.526 127.656 244.864 127.56 245.081 127.37C245.297 127.17 245.406 126.936 245.406 126.668C245.406 126.278 245.263 126.018 244.977 125.888C244.699 125.758 244.305 125.641 243.794 125.537C243.447 125.467 243.1 125.368 242.754 125.238C242.407 125.108 242.117 124.926 241.883 124.692C241.649 124.449 241.532 124.133 241.532 123.743C241.532 123.179 241.74 122.72 242.156 122.365C242.58 122.001 243.152 121.819 243.872 121.819C244.556 121.819 245.115 121.992 245.549 122.339C245.991 122.677 246.246 123.162 246.316 123.795H245.237C245.193 123.465 245.05 123.21 244.808 123.028C244.574 122.837 244.257 122.742 243.859 122.742C243.469 122.742 243.165 122.824 242.949 122.989C242.741 123.153 242.637 123.37 242.637 123.639C242.637 123.899 242.771 124.102 243.04 124.25C243.317 124.397 243.69 124.523 244.158 124.627C244.556 124.713 244.933 124.822 245.289 124.952C245.653 125.073 245.947 125.259 246.173 125.511C246.407 125.753 246.524 126.109 246.524 126.577C246.532 127.157 246.311 127.638 245.861 128.02C245.419 128.392 244.816 128.579 244.054 128.579ZM253.669 128.579C253.132 128.579 252.685 128.488 252.33 128.306C251.975 128.124 251.71 127.881 251.537 127.578C251.364 127.274 251.277 126.945 251.277 126.59C251.277 125.931 251.528 125.424 252.031 125.069C252.534 124.713 253.218 124.536 254.085 124.536H255.827V124.458C255.827 123.894 255.68 123.47 255.385 123.184C255.09 122.889 254.696 122.742 254.202 122.742C253.777 122.742 253.409 122.85 253.097 123.067C252.794 123.275 252.603 123.582 252.525 123.99H251.407C251.45 123.522 251.606 123.127 251.875 122.807C252.152 122.486 252.495 122.243 252.902 122.079C253.309 121.905 253.743 121.819 254.202 121.819C255.103 121.819 255.779 122.061 256.23 122.547C256.689 123.023 256.919 123.66 256.919 124.458V128.423H255.944L255.879 127.266C255.697 127.63 255.428 127.942 255.073 128.202C254.726 128.453 254.258 128.579 253.669 128.579ZM253.838 127.656C254.254 127.656 254.609 127.547 254.904 127.331C255.207 127.114 255.437 126.832 255.593 126.486C255.749 126.139 255.827 125.775 255.827 125.394V125.381H254.176C253.535 125.381 253.08 125.493 252.811 125.719C252.551 125.935 252.421 126.208 252.421 126.538C252.421 126.876 252.542 127.149 252.785 127.357C253.036 127.556 253.387 127.656 253.838 127.656ZM259.272 120.545C259.064 120.545 258.887 120.475 258.739 120.337C258.592 120.189 258.518 120.007 258.518 119.791C258.518 119.583 258.592 119.409 258.739 119.271C258.887 119.132 259.064 119.063 259.272 119.063C259.48 119.063 259.654 119.132 259.792 119.271C259.94 119.409 260.013 119.583 260.013 119.791C260.013 120.007 259.94 120.189 259.792 120.337C259.654 120.475 259.48 120.545 259.272 120.545ZM257.296 131.283V130.347H257.803C258.124 130.347 258.354 130.277 258.492 130.139C258.64 130.009 258.713 129.783 258.713 129.463V121.975H259.805V129.489C259.805 130.113 259.649 130.568 259.337 130.854C259.025 131.14 258.57 131.283 257.972 131.283H257.296ZM264.059 128.579C263.296 128.579 262.689 128.349 262.239 127.89C261.788 127.422 261.563 126.707 261.563 125.745V121.975H262.655V125.628C262.655 126.971 263.205 127.643 264.306 127.643C264.869 127.643 265.333 127.443 265.697 127.045C266.069 126.637 266.256 126.061 266.256 125.316V121.975H267.348V128.423H266.36L266.282 127.266C266.082 127.673 265.783 127.994 265.385 128.228C264.995 128.462 264.553 128.579 264.059 128.579ZM271.615 128.579C270.844 128.579 270.202 128.384 269.691 127.994C269.18 127.604 268.881 127.075 268.794 126.408H269.912C269.981 126.746 270.159 127.04 270.445 127.292C270.74 127.534 271.134 127.656 271.628 127.656C272.087 127.656 272.425 127.56 272.642 127.37C272.859 127.17 272.967 126.936 272.967 126.668C272.967 126.278 272.824 126.018 272.538 125.888C272.261 125.758 271.866 125.641 271.355 125.537C271.008 125.467 270.662 125.368 270.315 125.238C269.968 125.108 269.678 124.926 269.444 124.692C269.21 124.449 269.093 124.133 269.093 123.743C269.093 123.179 269.301 122.72 269.717 122.365C270.142 122.001 270.714 121.819 271.433 121.819C272.118 121.819 272.677 121.992 273.11 122.339C273.552 122.677 273.808 123.162 273.877 123.795H272.798C272.755 123.465 272.612 123.21 272.369 123.028C272.135 122.837 271.819 122.742 271.42 122.742C271.03 122.742 270.727 122.824 270.51 122.989C270.302 123.153 270.198 123.37 270.198 123.639C270.198 123.899 270.332 124.102 270.601 124.25C270.878 124.397 271.251 124.523 271.719 124.627C272.118 124.713 272.495 124.822 272.85 124.952C273.214 125.073 273.509 125.259 273.734 125.511C273.968 125.753 274.085 126.109 274.085 126.577C274.094 127.157 273.873 127.638 273.422 128.02C272.98 128.392 272.378 128.579 271.615 128.579ZM277.901 128.423C277.312 128.423 276.848 128.28 276.51 127.994C276.172 127.708 276.003 127.192 276.003 126.447V122.898H274.885V121.975H276.003L276.146 120.428H277.095V121.975H278.993V122.898H277.095V126.447C277.095 126.854 277.177 127.131 277.342 127.279C277.507 127.417 277.797 127.487 278.213 127.487H278.889V128.423H277.901ZM283.102 128.579C282.486 128.579 281.94 128.44 281.464 128.163C280.987 127.877 280.61 127.482 280.333 126.98C280.064 126.477 279.93 125.883 279.93 125.199C279.93 124.523 280.064 123.933 280.333 123.431C280.601 122.919 280.974 122.525 281.451 122.248C281.936 121.962 282.495 121.819 283.128 121.819C283.752 121.819 284.289 121.962 284.74 122.248C285.199 122.525 285.55 122.893 285.793 123.353C286.035 123.812 286.157 124.306 286.157 124.835C286.157 124.93 286.152 125.025 286.144 125.121C286.144 125.216 286.144 125.324 286.144 125.446H281.009C281.035 125.94 281.147 126.351 281.347 126.681C281.555 127.001 281.81 127.244 282.114 127.409C282.426 127.573 282.755 127.656 283.102 127.656C283.552 127.656 283.929 127.552 284.233 127.344C284.536 127.136 284.757 126.854 284.896 126.499H285.975C285.801 127.097 285.468 127.595 284.974 127.994C284.488 128.384 283.864 128.579 283.102 128.579ZM283.102 122.742C282.582 122.742 282.118 122.902 281.711 123.223C281.312 123.535 281.082 123.994 281.022 124.601H285.078C285.052 124.02 284.852 123.565 284.48 123.236C284.107 122.906 283.648 122.742 283.102 122.742ZM290.074 128.579C289.303 128.579 288.661 128.384 288.15 127.994C287.639 127.604 287.34 127.075 287.253 126.408H288.371C288.44 126.746 288.618 127.04 288.904 127.292C289.199 127.534 289.593 127.656 290.087 127.656C290.546 127.656 290.884 127.56 291.101 127.37C291.318 127.17 291.426 126.936 291.426 126.668C291.426 126.278 291.283 126.018 290.997 125.888C290.72 125.758 290.325 125.641 289.814 125.537C289.467 125.467 289.121 125.368 288.774 125.238C288.427 125.108 288.137 124.926 287.903 124.692C287.669 124.449 287.552 124.133 287.552 123.743C287.552 123.179 287.76 122.72 288.176 122.365C288.601 122.001 289.173 121.819 289.892 121.819C290.577 121.819 291.136 121.992 291.569 122.339C292.011 122.677 292.267 123.162 292.336 123.795H291.257C291.214 123.465 291.071 123.21 290.828 123.028C290.594 122.837 290.278 122.742 289.879 122.742C289.489 122.742 289.186 122.824 288.969 122.989C288.761 123.153 288.657 123.37 288.657 123.639C288.657 123.899 288.791 124.102 289.06 124.25C289.337 124.397 289.71 124.523 290.178 124.627C290.577 124.713 290.954 124.822 291.309 124.952C291.673 125.073 291.968 125.259 292.193 125.511C292.427 125.753 292.544 126.109 292.544 126.577C292.553 127.157 292.332 127.638 291.881 128.02C291.439 128.392 290.837 128.579 290.074 128.579ZM294.481 128.488C294.264 128.488 294.082 128.418 293.935 128.28C293.796 128.132 293.727 127.955 293.727 127.747C293.727 127.539 293.796 127.365 293.935 127.227C294.082 127.079 294.264 127.006 294.481 127.006C294.689 127.006 294.862 127.079 295.001 127.227C295.148 127.365 295.222 127.539 295.222 127.747C295.222 127.955 295.148 128.132 295.001 128.28C294.862 128.418 294.689 128.488 294.481 128.488Z" fill="black"/>
<path d="M153.084 83.6547C151.836 83.6547 150.756 83.3847 149.844 82.8447C148.944 82.2927 148.248 81.5307 147.756 80.5587C147.264 79.5747 147.018 78.4407 147.018 77.1567C147.018 75.8607 147.264 74.7267 147.756 73.7547C148.248 72.7707 148.944 72.0027 149.844 71.4507C150.756 70.8987 151.836 70.6227 153.084 70.6227C154.56 70.6227 155.766 70.9827 156.702 71.7027C157.638 72.4227 158.232 73.4307 158.484 74.7267H156.36C156.192 73.9947 155.832 73.4127 155.28 72.9807C154.728 72.5487 153.99 72.3327 153.066 72.3327C151.806 72.3327 150.81 72.7647 150.078 73.6287C149.346 74.4807 148.98 75.6567 148.98 77.1567C148.98 78.6447 149.346 79.8147 150.078 80.6667C150.81 81.5187 151.806 81.9447 153.066 81.9447C153.99 81.9447 154.728 81.7407 155.28 81.3327C155.832 80.9247 156.192 80.3667 156.36 79.6587H158.484C158.232 80.9067 157.638 81.8847 156.702 82.5927C155.766 83.3007 154.56 83.6547 153.084 83.6547ZM164.685 83.6547C163.833 83.6547 163.065 83.4627 162.381 83.0787C161.709 82.6827 161.175 82.1367 160.779 81.4407C160.383 80.7327 160.185 79.9107 160.185 78.9747C160.185 78.0387 160.383 77.2227 160.779 76.5267C161.187 75.8187 161.733 75.2727 162.417 74.8887C163.101 74.4927 163.863 74.2947 164.703 74.2947C165.555 74.2947 166.317 74.4927 166.989 74.8887C167.673 75.2727 168.213 75.8187 168.609 76.5267C169.017 77.2227 169.221 78.0387 169.221 78.9747C169.221 79.9107 169.017 80.7327 168.609 81.4407C168.213 82.1367 167.673 82.6827 166.989 83.0787C166.305 83.4627 165.537 83.6547 164.685 83.6547ZM164.685 82.0167C165.141 82.0167 165.561 81.9027 165.945 81.6747C166.341 81.4467 166.659 81.1107 166.899 80.6667C167.139 80.2107 167.259 79.6467 167.259 78.9747C167.259 78.3027 167.139 77.7447 166.899 77.3007C166.671 76.8447 166.359 76.5027 165.963 76.2747C165.579 76.0467 165.159 75.9327 164.703 75.9327C164.247 75.9327 163.821 76.0467 163.425 76.2747C163.041 76.5027 162.729 76.8447 162.489 77.3007C162.249 77.7447 162.129 78.3027 162.129 78.9747C162.129 79.6467 162.249 80.2107 162.489 80.6667C162.729 81.1107 163.041 81.4467 163.425 81.6747C163.809 81.9027 164.229 82.0167 164.685 82.0167ZM171.284 83.4387V74.5107H172.976L173.12 76.0767C173.396 75.5247 173.798 75.0927 174.326 74.7807C174.866 74.4567 175.484 74.2947 176.18 74.2947C177.26 74.2947 178.106 74.6307 178.718 75.3027C179.342 75.9747 179.654 76.9767 179.654 78.3087V83.4387H177.764V78.5067C177.764 76.7787 177.056 75.9147 175.64 75.9147C174.932 75.9147 174.344 76.1667 173.876 76.6707C173.42 77.1747 173.192 77.8947 173.192 78.8307V83.4387H171.284ZM182.351 83.4387V76.1127H181.073V74.5107H182.351V73.2147C182.351 72.2427 182.591 71.5467 183.071 71.1267C183.563 70.6947 184.253 70.4787 185.141 70.4787H186.077V72.0987H185.429C185.009 72.0987 184.709 72.1887 184.529 72.3687C184.349 72.5367 184.259 72.8247 184.259 73.2327V74.5107H186.311V76.1127H184.259V83.4387H182.351ZM191.949 83.6547C191.097 83.6547 190.329 83.4627 189.645 83.0787C188.973 82.6827 188.439 82.1367 188.043 81.4407C187.647 80.7327 187.449 79.9107 187.449 78.9747C187.449 78.0387 187.647 77.2227 188.043 76.5267C188.451 75.8187 188.997 75.2727 189.681 74.8887C190.365 74.4927 191.127 74.2947 191.967 74.2947C192.819 74.2947 193.581 74.4927 194.253 74.8887C194.937 75.2727 195.477 75.8187 195.873 76.5267C196.281 77.2227 196.485 78.0387 196.485 78.9747C196.485 79.9107 196.281 80.7327 195.873 81.4407C195.477 82.1367 194.937 82.6827 194.253 83.0787C193.569 83.4627 192.801 83.6547 191.949 83.6547ZM191.949 82.0167C192.405 82.0167 192.825 81.9027 193.209 81.6747C193.605 81.4467 193.923 81.1107 194.163 80.6667C194.403 80.2107 194.523 79.6467 194.523 78.9747C194.523 78.3027 194.403 77.7447 194.163 77.3007C193.935 76.8447 193.623 76.5027 193.227 76.2747C192.843 76.0467 192.423 75.9327 191.967 75.9327C191.511 75.9327 191.085 76.0467 190.689 76.2747C190.305 76.5027 189.993 76.8447 189.753 77.3007C189.513 77.7447 189.393 78.3027 189.393 78.9747C189.393 79.6467 189.513 80.2107 189.753 80.6667C189.993 81.1107 190.305 81.4467 190.689 81.6747C191.073 81.9027 191.493 82.0167 191.949 82.0167ZM198.548 83.4387V74.5107H200.258L200.42 76.2027C200.732 75.6147 201.164 75.1527 201.716 74.8167C202.28 74.4687 202.958 74.2947 203.75 74.2947V76.2927H203.228C202.7 76.2927 202.226 76.3827 201.806 76.5627C201.398 76.7307 201.068 77.0247 200.816 77.4447C200.576 77.8527 200.456 78.4227 200.456 79.1547V83.4387H198.548ZM209.13 83.4387C208.254 83.4387 207.558 83.2287 207.042 82.8087C206.526 82.3767 206.268 81.6147 206.268 80.5227V76.1127H204.738V74.5107H206.268L206.502 72.2427H208.176V74.5107H210.696V76.1127H208.176V80.5227C208.176 81.0147 208.278 81.3567 208.482 81.5487C208.698 81.7287 209.064 81.8187 209.58 81.8187H210.606V83.4387H209.13ZM216.611 83.6547C215.759 83.6547 214.991 83.4627 214.307 83.0787C213.635 82.6827 213.101 82.1367 212.705 81.4407C212.309 80.7327 212.111 79.9107 212.111 78.9747C212.111 78.0387 212.309 77.2227 212.705 76.5267C213.113 75.8187 213.659 75.2727 214.343 74.8887C215.027 74.4927 215.789 74.2947 216.629 74.2947C217.481 74.2947 218.243 74.4927 218.915 74.8887C219.599 75.2727 220.139 75.8187 220.535 76.5267C220.943 77.2227 221.147 78.0387 221.147 78.9747C221.147 79.9107 220.943 80.7327 220.535 81.4407C220.139 82.1367 219.599 82.6827 218.915 83.0787C218.231 83.4627 217.463 83.6547 216.611 83.6547ZM216.611 82.0167C217.067 82.0167 217.487 81.9027 217.871 81.6747C218.267 81.4467 218.585 81.1107 218.825 80.6667C219.065 80.2107 219.185 79.6467 219.185 78.9747C219.185 78.3027 219.065 77.7447 218.825 77.3007C218.597 76.8447 218.285 76.5027 217.889 76.2747C217.505 76.0467 217.085 75.9327 216.629 75.9327C216.173 75.9327 215.747 76.0467 215.351 76.2747C214.967 76.5027 214.655 76.8447 214.415 77.3007C214.175 77.7447 214.055 78.3027 214.055 78.9747C214.055 79.6467 214.175 80.2107 214.415 80.6667C214.655 81.1107 214.967 81.4467 215.351 81.6747C215.735 81.9027 216.155 82.0167 216.611 82.0167Z" fill="black"/>
<g clip-path="url(#clip0_101_234)">
<path d="M186.076 64.1193C199.556 64.1193 210.484 54.4377 210.484 42.4948C210.484 30.5519 199.556 20.8702 186.076 20.8702C172.596 20.8702 161.668 30.5519 161.668 42.4948C161.668 54.4377 172.596 64.1193 186.076 64.1193Z" fill="#FFF6DA"/>
<path d="M202.07 48.8515C203.531 43.9512 203.524 41.0549 202.055 36.1554C201.981 35.9137 202.06 35.6548 202.281 35.459C202.849 34.9567 203.161 34.288 203.161 33.5769C203.161 32.8666 202.848 32.198 202.281 31.6956C201.203 30.7407 199.282 30.5701 197.87 31.8437C197.651 32.0403 197.339 32.1218 197.032 32.0664C190.439 30.8042 181.926 30.7915 175.327 32.0317C174.907 32.1157 174.451 31.9936 174.117 31.6956C172.982 30.6909 171.001 30.6909 169.87 31.6956C169.303 32.198 168.99 32.8666 168.99 33.5769C168.99 34.288 169.303 34.9567 169.893 35.479C170.105 35.6661 170.189 35.9424 170.111 36.2005C168.617 41.2144 168.616 43.8221 170.109 48.8325C170.176 49.0603 170.101 49.3063 169.87 49.5107C168.699 50.5484 168.699 52.2356 169.87 53.2733C170.978 54.2572 172.711 54.4301 174.315 53.1105C174.496 52.9615 174.744 52.9034 174.988 52.9476C181.754 54.2626 190.413 54.2637 197.185 52.9502C197.436 52.9026 197.7 52.971 197.879 53.1321L198.038 53.2733C198.605 53.7757 199.36 54.0529 200.162 54.0529C200.964 54.0529 201.719 53.7757 202.286 53.2733C203.457 52.2356 203.457 50.5484 202.263 49.4908C202.076 49.3245 202.001 49.0794 202.07 48.8515Z" fill="black"/>
<circle cx="174.668" cy="2.79028" r="2" fill="#FFF6DA"/>
<circle cx="181.168" cy="8.29028" r="2.5" fill="#FFF6DA"/>
<circle cx="173.168" cy="13.2903" r="4.5" fill="#FFF6DA"/>
<ellipse cx="196.653" cy="24.7318" rx="4.06801" ry="3.86153" fill="#FFF6DA"/>
</g>
<defs>
<clipPath id="clip0_101_234">
<rect width="48.8161" height="63.329" fill="white" transform="translate(161.668 0.790283)"/>
</clipPath>
</defs>
</svg>
