<svg width="49" height="62" viewBox="0 0 49 62" fill="none" xmlns="http://www.w3.org/2000/svg">
<g clip-path="url(#clip0_100_216)">
<path d="M24.2258 61.0487C37.4094 61.0487 48.0968 52.0119 48.0968 40.8645C48.0968 29.7171 37.4094 20.6803 24.2258 20.6803C11.0423 20.6803 0.354858 29.7171 0.354858 40.8645C0.354858 52.0119 11.0423 61.0487 24.2258 61.0487Z" fill="#FC6B3F"/>
<path d="M23.2467 28.6758C19.4725 28.859 15.9332 30.0991 13.1082 32.2279L17.4772 35.9222C19.1214 34.7648 21.1178 34.0654 23.2467 33.9009V28.6758Z" fill="black"/>
<path d="M16.0922 37.0925L11.7232 33.3983C9.20328 35.7864 7.73485 38.7793 7.51685 41.9713H13.6966C13.8924 40.1709 14.7214 38.4827 16.0922 37.0925Z" fill="black"/>
<path d="M34.7549 41.9713H40.9347C40.7167 38.7793 39.2483 35.7864 36.7284 33.3983L32.3594 37.0925C33.7302 38.4826 34.5591 40.1709 34.7549 41.9713Z" fill="black"/>
<path d="M34.7536 43.6271C34.6164 44.9022 34.186 45.9657 33.677 46.8188C34.1736 47.4662 34.5875 48.0134 34.861 48.3768C35.6058 49.3665 35.4409 50.6368 34.46 51.4663C34.2218 51.6677 33.9497 51.83 33.6549 51.9499L34.6724 52.8103C34.8639 52.9723 35.115 53.0532 35.3659 53.0532C35.617 53.0532 35.868 52.9723 36.0594 52.8103C38.9917 50.3312 40.7015 47.0962 40.9355 43.6271H34.7536Z" fill="black"/>
<path d="M13.698 43.6271H7.51611C7.75011 47.0962 9.45992 50.3312 12.3921 52.8104C12.5836 52.9723 12.8346 53.0533 13.0856 53.0533C13.3366 53.0533 13.5876 52.9723 13.7791 52.8104L16.7498 50.2984C17.1327 49.9745 17.1327 49.4494 16.7498 49.1255C15.9745 48.47 14.0218 46.6348 13.698 43.6271Z" fill="black"/>
<path d="M35.3434 32.2279C32.5183 30.099 28.979 28.859 25.2048 28.6758V33.9009C27.3336 34.0654 29.3301 34.7648 30.9743 35.9222L35.3434 32.2279Z" fill="black"/>
<path d="M26.4013 40.9736C25.2018 39.9593 23.25 39.9593 22.0505 40.9736C20.851 41.9878 20.851 43.6381 22.0505 44.6524C23.5659 45.9337 31.0131 49.9544 31.8573 50.4086C32.2445 50.617 32.7508 50.5699 33.0753 50.2956C33.3998 50.0212 33.4554 49.5931 33.209 49.2657C32.6718 48.5519 27.9167 42.2548 26.4013 40.9736V40.9736Z" fill="black"/>
<circle cx="13.8549" cy="13.7258" r="4.5" fill="#FC6B3F"/>
<ellipse cx="25.8172" cy="1.93782" rx="1.5914" ry="1.44173" fill="#FC6B3F"/>
<ellipse cx="15.4731" cy="6.98384" rx="3.97849" ry="3.60432" fill="#FC6B3F"/>
<ellipse cx="36.957" cy="23.5638" rx="3.18279" ry="2.88345" fill="#FC6B3F"/>
<circle cx="16.8549" cy="8.72583" r="2.5" fill="#FC6B3F"/>
<ellipse cx="9.10752" cy="22.8428" rx="3.97849" ry="3.60432" fill="#FC6B3F"/>
</g>
<defs>
<clipPath id="clip0_100_216">
<rect width="47.7419" height="60.8229" fill="white" transform="translate(0.354858 0.22583)"/>
</clipPath>
</defs>
</svg>
