<svg width="14" height="14" viewBox="0 0 14 14" fill="none" xmlns="http://www.w3.org/2000/svg">
<path d="M10.0667 8.33333C9.93333 8.26666 9.06667 7.86666 8.93333 7.8C8.8 7.73333 8.66667 7.73333 8.53333 7.86666C8.4 8 8.13333 8.4 8 8.53333C7.93333 8.66667 7.8 8.66667 7.66667 8.6C7.2 8.4 6.73333 8.13333 6.33333 7.8C6 7.46666 5.66667 7.06667 5.4 6.66667C5.33333 6.53333 5.4 6.4 5.46667 6.33333C5.53333 6.26666 5.6 6.13333 5.73333 6.06667C5.8 6 5.86667 5.86666 5.86667 5.8C5.93333 5.73333 5.93333 5.59999 5.86667 5.53332C5.8 5.46665 5.46667 4.66665 5.33333 4.33332C5.26667 3.86665 5.13333 3.86665 5 3.86665C4.93333 3.86665 4.8 3.86665 4.66667 3.86665C4.53333 3.86665 4.33333 3.99999 4.26667 4.06665C3.86667 4.46665 3.66667 4.93332 3.66667 5.46665C3.73333 6.06667 3.93333 6.66667 4.33333 7.2C5.06667 8.26666 6 9.13333 7.13333 9.66667C7.46667 9.8 7.73333 9.93333 8.06667 10C8.4 10.1333 8.73333 10.1333 9.13333 10.0667C9.6 10 10 9.66666 10.2667 9.26666C10.4 9 10.4 8.73333 10.3333 8.46666C10.3333 8.46666 10.2 8.4 10.0667 8.33333ZM11.7333 2.26665C9.13333 -0.33335 4.93333 -0.33335 2.33333 2.26665C0.199999 4.39999 -0.200001 7.66666 1.26667 10.2667L0.333332 13.6667L3.86667 12.7333C4.86667 13.2667 5.93333 13.5333 7 13.5333C10.6667 13.5333 13.6 10.6 13.6 6.93333C13.6667 5.19998 12.9333 3.53332 11.7333 2.26665ZM9.93333 11.6C9.06667 12.1333 8.06667 12.4667 7 12.4667C6 12.4667 5.06667 12.2 4.2 11.7333L4 11.6L1.93333 12.1333L2.46667 10.1333L2.33333 9.93333C0.733332 7.26666 1.53333 3.93332 4.13333 2.26665C6.73333 0.599986 10.0667 1.46665 11.6667 3.99999C13.2667 6.6 12.5333 10 9.93333 11.6Z" fill="white"/>
</svg>
